# xmcd
#
# Track frame offsets: 
#        150
#        11487
#        22832
#        33025
#        42730
#        52330
#        61552
#        70487
#        80197
#        91967
#        100315
#        115000
#
# Disc length: 1670 seconds
#
# Revision: 0
# Processed by: cddbd v1.4PL0 Copyright (c) Steve Scherf et al.
# Submitted via: ExactAudioCopy v0.90b4
#
DISCID=9806840c
DTITLE=The Isley Brothers - The Isley Brothers Greatest Hits
DYEAR=1995
DGENRE=Soul
TTITLE0=Twist and Shout
TTITLE1=Twisting With Linda
TTITLE2=You Better Come Home
TTITLE3=Let's Twist Again
TTITLE4=Nobody But Me
TTITLE5=Crazy Love
TTITLE6=Rubber Leg Twist
TTITLE7=The Snake
TTITLE8=Time After Time
TTITLE9=I'm Laughing To Keep From Crying
TTITLE10=Right Now
TTITLE11=Never Leave Me Baby
EXTD=
EXTT0=
EXTT1=
EXTT2=
EXTT3=
EXTT4=
EXTT5=
EXTT6=
EXTT7=
EXTT8=
EXTT9=
EXTT10=
EXTT11=
PLAYORDER=
